
<svg width="75px" height="75px" viewBox="0 0 75 75" version="1.1" xmlns="http://www.w3.org/2000/svg" xmlns:xlink="http://www.w3.org/1999/xlink">
    <g id="Page-1" stroke="none" stroke-width="1" fill="none" fill-rule="evenodd">
        <g id="Group">
            <g id="crabicon" fill-rule="nonzero">
                <g transform="translate(1.000000, 11.000000)" id="Rectangle">
                    <rect fill="#FFFFFF" x="7" y="23" width="9" height="36"></rect>
                    <rect fill="#FFFFFF" x="21" y="23" width="9" height="36"></rect>
                    <rect fill="#FFFFFF" x="42" y="23" width="9" height="36"></rect>
                    <rect fill="#FFFFFF" x="56" y="23" width="9" height="36"></rect>
                    <rect fill="#FFFFFF" x="63" y="21" width="9" height="9"></rect>
                    <rect fill="#FFFFFF" x="23" y="21" width="9" height="9"></rect>
                    <rect fill="#FFFFFF" x="7" y="0" width="58" height="36"></rect>
                    <rect fill="#FFFFFF" x="0" y="21" width="9" height="9"></rect>
                    <rect fill="#000000" x="14" y="7" width="8" height="8"></rect>
                    <rect fill="#000000" x="49" y="7" width="8" height="8"></rect>
                </g>
                <rect id="Rectangle" fill="#D8D8D8" opacity="0" x="0" y="0" width="75" height="75"></rect>
            </g>
            <rect id="Rectangle" fill="#FFFFFF" x="50" y="40" width="12" height="30"></rect>
            <g id="alert_4460557" transform="translate(37.000000, 34.000000)" fill="#FF7516" fill-rule="nonzero">
                <path d="M18.5000771,23.4498292 C17.4551354,23.4498292 16.5971979,22.6224167 16.5595042,21.5780917 L16.0687146,7.98575625 C16.0489813,7.43908125 16.2318229,6.96139583 16.6116125,6.56765417 C16.9914021,6.1739125 17.46215,5.97395833 18.0092104,5.97395833 L18.9909438,5.97395833 C19.5379271,5.97395833 20.0087521,6.17398958 20.3884646,6.56765417 C20.7682542,6.96139583 20.9510958,7.43908125 20.9313625,7.98575625 L20.4404958,21.5780917 C20.4028792,22.6223396 19.5449417,23.4498292 18.5000771,23.4498292 Z M18.5000771,26.0509292 C19.8739333,26.0509292 20.9876333,27.1646292 20.9876333,28.5384854 C20.9876333,29.9123417 19.8739333,31.0260417 18.5000771,31.0260417 C17.1262208,31.0260417 16.0124438,29.9123417 16.0124438,28.5384854 C16.0124438,27.1646292 17.1262208,26.0509292 18.5000771,26.0509292 Z M18.5,0 C8.28275833,0 0,8.28275833 0,18.5 C0,28.7172417 8.28275833,37 18.5,37 C28.7172417,37 37,28.7172417 37,18.5 C37,8.28275833 28.7172417,0 18.5,0 Z" id="Shape"></path>
            </g>
        </g>
    </g>
</svg>